<?xml version="1.0" encoding="UTF-8" standalone="no"?>
<svg
   version="1.1"
   width="341"
   height="304"
   style="clip-rule:evenodd;fill-rule:evenodd;image-rendering:optimizeQuality;shape-rendering:geometricPrecision;text-rendering:geometricPrecision"
   id="svg12"
   sodipodi:docname="logo.svg"
   xmlns:inkscape="http://www.inkscape.org/namespaces/inkscape"
   xmlns:sodipodi="http://sodipodi.sourceforge.net/DTD/sodipodi-0.dtd"
   xmlns="http://www.w3.org/2000/svg"
   xmlns:svg="http://www.w3.org/2000/svg">
  <defs
     id="defs12" />
  <sodipodi:namedview
     id="namedview12"
     pagecolor="#ffffff"
     bordercolor="#000000"
     borderopacity="0.25"
     inkscape:showpageshadow="2"
     inkscape:pageopacity="0.0"
     inkscape:pagecheckerboard="0"
     inkscape:deskcolor="#d1d1d1" />
  <g
     id="g5">
    <path
       style="opacity:1"
       fill="#f28498"
       d="m 200.5,210.5 c -0.283,0.789 -0.783,1.456 -1.5,2 -0.498,-2.982 -0.665,-5.982 -0.5,-9 2.203,-22.145 7.536,-43.479 16,-64 20.547,-1.007 38.214,-8.507 53,-22.5 7.809,-0.147 10.142,-3.647 7,-10.5 -3.818,-2.891 -7.318,-2.557 -10.5,1 -0.422,2.736 -0.422,5.402 0,8 -13.01,12.339 -28.51,18.839 -46.5,19.5 7.874,-16.261 17.374,-31.427 28.5,-45.5 3.333,-6 6.667,-12 10,-18 5.905,-0.8966 8.238,-4.2299 7,-10 -3.667,-4 -7.333,-4 -11,0 -0.847,3.0876 -0.347,5.9209 1.5,8.5 -7.272,13.9333 -16.105,26.7666 -26.5,38.5 -14.307,9.637 -24.974,22.304 -32,38 -5.961,-18.058 -6.961,-36.392 -3,-55 7.201,-0.7526 9.534,-4.4193 7,-11 -4.018,-2.9386 -7.685,-2.6053 -11,1 -0.725,2.8766 -0.225,5.5433 1.5,8 -4.517,21.035 -3.517,41.868 3,62.5 -2.739,6.764 -5.739,13.264 -9,19.5 0.165,-3.018 -0.002,-6.018 -0.5,-9 -7.122,-19.909 -16.122,-38.909 -27,-57 -0.667,-1 -0.667,-2 0,-3 16.104,-33.9378 41.271,-58.6045 75.5,-74 22.595,-9.8979 46.262,-15.2312 71,-16 1.342,50.6036 -5.825,99.937 -21.5,148 -17.671,8.419 -35.171,17.252 -52.5,26.5 -6.667,4.667 -13.333,9.333 -20,14 -3.254,2.747 -5.92,5.914 -8,9.5 z"
       id="path5" />
  </g>
  <g
     id="g6">
    <path
       style="opacity:1"
       fill="#f28498"
       d="m 135.5,254.5 c -1.591,-2.931 -3.591,-5.598 -6,-8 10.899,-13.179 17.232,-28.346 19,-45.5 1.04,-2.131 2.54,-3.964 4.5,-5.5 0.55,-7.984 -2.95,-10.484 -10.5,-7.5 -2.818,3.913 -2.318,7.413 1.5,10.5 -0.156,17.142 -5.823,32.142 -17,45 -9.495,-12.317 -17.995,-25.317 -25.5,-39 11.711,-13.45 18.377,-29.116 20,-47 1.286,-1.79 2.786,-3.457 4.5,-5 0.57,-8.748 -3.097,-11.082 -11,-7 -1.378,4.487 -0.212,7.987 3.5,10.5 -1.702,14.652 -6.535,28.152 -14.5,40.5 -1.333,1.333 -2.667,2.667 -4,4 -9.1096,-13.888 -15.7763,-28.888 -20,-45 -0.506,-17.709 0.1607,-35.375 2,-53 4.826,-4.4988 4.6594,-8.6655 -0.5,-12.5 -4.4279,-0.4446 -7.0946,1.5554 -8,6 0.2486,2.6641 1.4153,4.831 3.5,6.5 -0.0918,17.998 -0.0918,35.998 0,54 1.7166,9.267 2.8833,18.6 3.5,28 -17.1594,-4.737 -30.4927,-14.57 -40,-29.5 4.2365,-4.061 3.9032,-7.728 -1,-11 -6.8333,-1.167 -9.6667,1.667 -8.5,8.5 1.8449,2.683 4.3449,4.35 7.5,5 3.7101,7.545 9.0435,13.712 16,18.5 8.2517,5.793 17.2517,9.959 27,12.5 3.1012,14.411 7.4346,28.411 13,42 -18.0719,-0.187 -33.5719,-6.52 -46.5,-19 1.5351,-7.798 -1.6316,-10.965 -9.5,-9.5 -3.3346,2.679 -3.8346,5.845 -1.5,9.5 3.3065,1.532 6.8065,2.699 10.5,3.5 13.5829,13.287 29.9162,19.62 49,19 13.214,24.89 30.548,46.556 52,65 -6.36,-2.387 -13.027,-3.887 -20,-4.5 -14.838,-2.742 -29.8385,-4.575 -45,-5.5 C 56.7136,279.885 36.2136,263.052 22,238.5 7.37996,213.113 0.546622,185.78 1.5,156.5 c 0.1869,-12.162 1.6869,-24.162 4.5,-36 7.8548,-29.7074 21.0215,-56.7074 39.5,-81 0.6556,-0.7778 1.4889,-1.4444 2.5,-2 37.7276,15.3577 68.728,39.3577 93,72 34.442,53.382 42.776,110.716 25,172 -10.929,-8.093 -21.096,-17.093 -30.5,-27 z"
       id="path6" />
  </g>
  <g
     id="g10">
    <path
       style="opacity:1"
       fill="#f18397"
       d="m 328.5,216.5 c -13.543,36.209 -38.21,61.542 -74,76 -16.591,5.251 -33.591,7.751 -51,7.5 12.455,-9.29 24.455,-19.123 36,-29.5 2.797,-2.295 5.464,-4.795 8,-7.5 15.408,1.881 29.241,-1.952 41.5,-11.5 7.352,2.317 10.352,-0.35 9,-8 -3.62,-3.987 -7.287,-3.987 -11,0 -0.045,2.834 -0.879,5.334 -2.5,7.5 -9.658,6.915 -20.324,9.415 -32,7.5 12.182,-12.348 24.182,-24.848 36,-37.5 5.058,-4.057 10.392,-7.724 16,-11 2.793,1.082 5.793,1.415 9,1 5.949,-5.751 4.949,-9.918 -3,-12.5 -4.711,0.877 -7.044,3.71 -7,8.5 -12.23,7.12 -22.897,16.12 -32,27 -11.824,8.746 -23.824,17.246 -36,25.5 -1.654,-11.885 1.013,-22.718 8,-32.5 9.421,-1.046 11.421,-5.379 6,-13 -7.464,-0.911 -10.131,2.255 -8,9.5 -8.125,11.733 -11.458,24.733 -10,39 -14.254,8.961 -29.254,16.628 -45,23 2.507,-22.514 10.173,-43.181 23,-62 20.582,-27.943 48.415,-41.276 83.5,-40 14.235,0.634 28.401,1.967 42.5,4 -1.23,9.921 -3.564,19.588 -7,29 z"
       id="path10" />
  </g>
</svg>
